<svg width="32" height="32" viewBox="0 0 309 175" fill="none" xmlns="http://www.w3.org/2000/svg">
<mask id="path-1-outside-1_4_2" maskUnits="userSpaceOnUse" x="-6" y="-6" width="321" height="187" fill="black">
<rect fill="white" x="-6" y="-6" width="321" height="187"/>
<path d="M0.678978 105.486V85.0312L97.8381 40.1449V65.358L28.804 94.9744L29.5852 93.625V96.892L28.804 95.5426L97.8381 125.159V150.372L0.678978 105.486ZM189.156 0.727263L142.281 174.875H119.766L166.641 0.727263H189.156ZM308.19 105.486L211.031 150.372V125.159L280.065 95.5426L279.283 96.892V93.625L280.065 94.9744L211.031 65.358V40.1449L308.19 85.0312V105.486Z"/>
</mask>
<path d="M0.678978 105.486V85.0312L97.8381 40.1449V65.358L28.804 94.9744L29.5852 93.625V96.892L28.804 95.5426L97.8381 125.159V150.372L0.678978 105.486ZM189.156 0.727263L142.281 174.875H119.766L166.641 0.727263H189.156ZM308.19 105.486L211.031 150.372V125.159L280.065 95.5426L279.283 96.892V93.625L280.065 94.9744L211.031 65.358V40.1449L308.19 85.0312V105.486Z" fill="#2D45FF"/>
<path d="M0.678978 105.486H-5.32102C-5.32102 107.825 -3.9612 109.951 -1.83739 110.933L0.678978 105.486ZM0.678978 85.0312L-1.83739 79.5844C-3.9612 80.5656 -5.32102 82.6917 -5.32102 85.0312H0.678978ZM97.8381 40.1449H103.838C103.838 38.0983 102.795 36.1929 101.071 35.0903C99.3468 33.9876 97.1796 33.8398 95.3217 34.6981L97.8381 40.1449ZM97.8381 65.358L100.204 70.8719C102.409 69.926 103.838 67.7573 103.838 65.358H97.8381ZM28.804 94.9744L23.6114 91.9682C22.3159 94.2059 22.5996 97.0218 24.3155 98.9561C26.0313 100.89 28.7934 101.508 31.1695 100.488L28.804 94.9744ZM29.5852 93.625H35.5852C35.5852 90.9107 33.763 88.5345 31.1416 87.8304C28.5202 87.1263 25.7526 88.2698 24.3927 90.6188L29.5852 93.625ZM29.5852 96.892L24.3927 99.8983C25.7526 102.247 28.5202 103.391 31.1416 102.687C33.763 101.983 35.5852 99.6063 35.5852 96.892H29.5852ZM28.804 95.5426L31.1695 90.0286C28.7934 89.0092 26.0313 89.6267 24.3155 91.561C22.5996 93.4952 22.3159 96.3112 23.6114 98.5488L28.804 95.5426ZM97.8381 125.159H103.838C103.838 122.76 102.409 120.591 100.204 119.645L97.8381 125.159ZM97.8381 150.372L95.3217 155.819C97.1796 156.677 99.3468 156.529 101.071 155.427C102.795 154.324 103.838 152.419 103.838 150.372H97.8381ZM6.67898 105.486V85.0312H-5.32102V105.486H6.67898ZM3.19535 90.4781L100.354 45.5917L95.3217 34.6981L-1.83739 79.5844L3.19535 90.4781ZM91.8381 40.1449V65.358H103.838V40.1449H91.8381ZM95.4725 59.844L26.4384 89.4604L31.1695 100.488L100.204 70.8719L95.4725 59.844ZM33.9965 97.9806L34.7778 96.6312L24.3927 90.6188L23.6114 91.9682L33.9965 97.9806ZM23.5852 93.625V96.892H35.5852V93.625H23.5852ZM34.7778 93.8858L33.9965 92.5364L23.6114 98.5488L24.3927 99.8983L34.7778 93.8858ZM26.4384 101.057L95.4725 130.673L100.204 119.645L31.1695 90.0286L26.4384 101.057ZM91.8381 125.159V150.372H103.838V125.159H91.8381ZM100.354 144.925L3.19535 100.039L-1.83739 110.933L95.3217 155.819L100.354 144.925ZM189.156 0.727263L194.949 2.28676C195.434 0.484379 195.053 -1.44113 193.918 -2.9226C192.782 -4.40407 191.022 -5.27274 189.156 -5.27274V0.727263ZM142.281 174.875V180.875C144.994 180.875 147.369 179.054 148.074 176.435L142.281 174.875ZM119.766 174.875L113.973 173.315C113.487 175.118 113.869 177.043 115.004 178.525C116.14 180.006 117.9 180.875 119.766 180.875V174.875ZM166.641 0.727263V-5.27274C163.928 -5.27274 161.553 -3.45209 160.848 -0.832239L166.641 0.727263ZM183.362 -0.832239L136.487 173.315L148.074 176.435L194.949 2.28676L183.362 -0.832239ZM142.281 168.875H119.766V180.875H142.281V168.875ZM125.56 176.435L172.435 2.28676L160.848 -0.832239L113.973 173.315L125.56 176.435ZM166.641 6.72726H189.156V-5.27274H166.641V6.72726ZM308.19 105.486L310.706 110.933C312.83 109.951 314.19 107.825 314.19 105.486H308.19ZM211.031 150.372H205.031C205.031 152.419 206.074 154.324 207.798 155.427C209.522 156.529 211.689 156.677 213.547 155.819L211.031 150.372ZM211.031 125.159L208.665 119.645C206.46 120.591 205.031 122.76 205.031 125.159H211.031ZM280.065 95.5426L285.257 98.5488C286.553 96.3112 286.269 93.4952 284.553 91.561C282.837 89.6267 280.075 89.0092 277.699 90.0286L280.065 95.5426ZM279.283 96.892H273.283C273.283 99.6063 275.106 101.983 277.727 102.687C280.348 103.391 283.116 102.247 284.476 99.8983L279.283 96.892ZM279.283 93.625L284.476 90.6188C283.116 88.2698 280.348 87.1263 277.727 87.8304C275.106 88.5345 273.283 90.9107 273.283 93.625H279.283ZM280.065 94.9744L277.699 100.488C280.075 101.508 282.837 100.89 284.553 98.9561C286.269 97.0218 286.553 94.2059 285.257 91.9682L280.065 94.9744ZM211.031 65.358H205.031C205.031 67.7573 206.46 69.926 208.665 70.8719L211.031 65.358ZM211.031 40.1449L213.547 34.6981C211.689 33.8398 209.522 33.9876 207.798 35.0903C206.074 36.1929 205.031 38.0983 205.031 40.1449H211.031ZM308.19 85.0312H314.19C314.19 82.6917 312.83 80.5656 310.706 79.5844L308.19 85.0312ZM305.673 100.039L208.514 144.925L213.547 155.819L310.706 110.933L305.673 100.039ZM217.031 150.372V125.159H205.031V150.372H217.031ZM213.396 130.673L282.43 101.057L277.699 90.0286L208.665 119.645L213.396 130.673ZM274.872 92.5364L274.091 93.8858L284.476 99.8983L285.257 98.5488L274.872 92.5364ZM285.283 96.892V93.625H273.283V96.892H285.283ZM274.091 96.6312L274.872 97.9806L285.257 91.9682L284.476 90.6188L274.091 96.6312ZM282.43 89.4604L213.396 59.844L208.665 70.8719L277.699 100.488L282.43 89.4604ZM217.031 65.358V40.1449H205.031V65.358H217.031ZM208.514 45.5917L305.673 90.4781L310.706 79.5844L213.547 34.6981L208.514 45.5917ZM302.19 85.0312V105.486H314.19V85.0312H302.19Z" fill="white" mask="url(#path-1-outside-1_4_2)"/>
</svg>
